<svg xmlns="http://www.w3.org/2000/svg" xmlns:xlink="http://www.w3.org/1999/xlink" width="100" zoomAndPan="magnify" viewBox="0 0 75 74.999997" height="100" preserveAspectRatio="xMidYMid meet" version="1.0"><defs><clipPath id="6bbc84f7f1"><path d="M 31 61 L 43 61 L 43 66.871094 L 31 66.871094 Z M 31 61 " clip-rule="nonzero"/></clipPath><clipPath id="ccf5ca7545"><path d="M 22.191406 17 L 52.941406 17 L 52.941406 52 L 22.191406 52 Z M 22.191406 17 " clip-rule="nonzero"/></clipPath><clipPath id="2b8d1008a1"><path d="M 29 8.371094 L 46 8.371094 L 46 17 L 29 17 Z M 29 8.371094 " clip-rule="nonzero"/></clipPath></defs><path fill="#000000" d="M 42.777344 54.980469 L 30.730469 52.339844 C 30.699219 52.332031 30.667969 52.324219 30.636719 52.308594 C 30.414062 52.253906 30.199219 52.171875 30.007812 52.070312 C 29.585938 51.871094 29.230469 51.585938 29.039062 51.25 C 28.925781 51.050781 28.808594 50.726562 28.925781 50.367188 C 29.0625 49.960938 29.46875 49.644531 30 49.453125 C 30.191406 49.382812 30.40625 49.335938 30.628906 49.308594 C 30.757812 49.292969 30.875 49.261719 31.011719 49.261719 C 31.265625 49.261719 31.519531 49.292969 31.765625 49.34375 L 36.972656 50.488281 L 37.601562 50.628906 L 43.820312 51.988281 C 43.851562 51.996094 43.882812 52.007812 43.914062 52.015625 C 44.136719 52.070312 44.351562 52.15625 44.542969 52.246094 C 44.964844 52.457031 45.3125 52.730469 45.503906 53.070312 C 45.617188 53.269531 45.734375 53.589844 45.617188 53.953125 C 45.480469 54.359375 45.074219 54.675781 44.542969 54.867188 C 44.234375 54.972656 43.90625 55.050781 43.539062 55.050781 C 43.308594 55.050781 43.070312 55.019531 42.847656 54.972656 C 42.824219 54.964844 42.800781 54.972656 42.777344 54.964844 Z M 41.148438 52.417969 C 41.109375 52.585938 41.21875 52.753906 41.386719 52.792969 L 43.8125 53.324219 C 43.835938 53.332031 43.859375 53.332031 43.882812 53.332031 C 43.890625 53.332031 43.898438 53.324219 43.914062 53.324219 C 44.042969 53.316406 44.160156 53.222656 44.199219 53.085938 C 44.234375 52.914062 44.128906 52.746094 43.953125 52.707031 L 43.914062 52.699219 L 41.527344 52.179688 C 41.355469 52.140625 41.1875 52.246094 41.148438 52.417969 Z M 41.148438 52.417969 " fill-opacity="1" fill-rule="evenodd"/><path fill="#000000" d="M 31.765625 53.277344 L 39.597656 54.988281 L 42.476562 55.617188 L 43.820312 55.910156 C 44.589844 56.078125 45.21875 56.488281 45.511719 56.992188 C 45.625 57.199219 45.742188 57.515625 45.625 57.875 C 45.410156 58.523438 44.558594 58.976562 43.539062 58.976562 C 43.367188 58.976562 43.191406 58.945312 43.015625 58.921875 C 42.9375 58.90625 42.855469 58.914062 42.777344 58.890625 L 42.277344 58.78125 L 33.707031 56.902344 L 32.933594 56.730469 L 30.730469 56.25 C 29.960938 56.078125 29.332031 55.679688 29.039062 55.164062 C 28.925781 54.964844 28.808594 54.644531 28.925781 54.28125 C 29.0625 53.875 29.46875 53.5625 30 53.367188 C 30.191406 53.300781 30.40625 53.253906 30.628906 53.222656 C 30.757812 53.207031 30.875 53.175781 31.011719 53.175781 C 31.265625 53.175781 31.519531 53.207031 31.765625 53.261719 Z M 41.480469 56.632812 L 43.8125 57.140625 C 43.835938 57.148438 43.859375 57.148438 43.882812 57.148438 C 44.027344 57.148438 44.160156 57.046875 44.191406 56.902344 C 44.230469 56.730469 44.121094 56.5625 43.945312 56.523438 L 41.511719 55.988281 C 41.339844 55.949219 41.171875 56.058594 41.132812 56.226562 C 41.125 56.28125 41.148438 56.316406 41.164062 56.363281 C 41.195312 56.472656 41.265625 56.570312 41.378906 56.601562 L 41.480469 56.625 Z M 41.480469 56.632812 " fill-opacity="1" fill-rule="evenodd"/><path fill="#000000" d="M 33.117188 57.492188 L 42.554688 59.566406 L 43.261719 59.71875 L 43.820312 59.84375 C 44.582031 60.011719 45.21875 60.410156 45.511719 60.925781 C 45.625 61.132812 45.742188 61.449219 45.625 61.808594 C 45.410156 62.453125 44.558594 62.90625 43.546875 62.90625 C 43.414062 62.90625 43.285156 62.875 43.152344 62.859375 C 43.039062 62.84375 42.90625 62.84375 42.785156 62.820312 L 42.523438 62.761719 L 31.820312 60.410156 L 31.203125 60.28125 L 30.730469 60.171875 C 29.960938 60.003906 29.332031 59.605469 29.039062 59.089844 C 28.871094 58.796875 28.832031 58.492188 28.925781 58.207031 C 29.140625 57.5625 29.992188 57.109375 31.003906 57.109375 C 31.257812 57.109375 31.511719 57.140625 31.757812 57.191406 L 32.417969 57.339844 L 33.109375 57.492188 Z M 41.527344 59.910156 C 41.355469 59.875 41.1875 59.980469 41.148438 60.148438 C 41.109375 60.328125 41.21875 60.488281 41.386719 60.527344 L 42.769531 60.824219 L 43.414062 60.964844 L 43.8125 61.054688 C 43.835938 61.0625 43.859375 61.0625 43.882812 61.0625 C 44.027344 61.0625 44.160156 60.964844 44.191406 60.816406 C 44.230469 60.648438 44.121094 60.480469 43.945312 60.441406 L 43.335938 60.3125 L 42.691406 60.164062 L 41.511719 59.910156 Z M 41.527344 59.910156 " fill-opacity="1" fill-rule="evenodd"/><g clip-path="url(#6bbc84f7f1)"><path fill="#000000" d="M 31.75 61.046875 L 42.300781 63.359375 C 41.433594 65.277344 39.511719 66.625 37.269531 66.625 C 34.222656 66.625 31.742188 64.144531 31.742188 61.09375 C 31.742188 61.078125 31.75 61.0625 31.75 61.046875 Z M 36.304688 65.441406 C 36.359375 65.273438 36.257812 65.09375 36.097656 65.050781 C 34.820312 64.664062 33.808594 63.691406 33.378906 62.429688 C 33.316406 62.269531 33.140625 62.183594 32.980469 62.230469 C 32.816406 62.285156 32.726562 62.46875 32.777344 62.628906 C 33.277344 64.082031 34.453125 65.210938 35.917969 65.648438 C 35.949219 65.65625 35.980469 65.664062 36.011719 65.664062 C 36.148438 65.664062 36.273438 65.578125 36.3125 65.433594 Z M 36.304688 65.441406 " fill-opacity="1" fill-rule="evenodd"/></g><g clip-path="url(#ccf5ca7545)"><path fill="#000000" d="M 46.570312 42.742188 C 44.996094 44.960938 43.644531 46.878906 43.546875 48.386719 L 43.546875 51.226562 L 44.011719 51.328125 L 44.644531 51.464844 L 45.363281 51.625 L 45.363281 48.445312 C 45.402344 47.984375 45.71875 47.332031 46.179688 46.566406 C 46.679688 45.734375 47.355469 44.777344 48.054688 43.785156 C 48.269531 43.484375 48.445312 43.226562 48.566406 43.054688 C 48.765625 42.773438 48.945312 42.519531 49.082031 42.320312 C 49.894531 41.136719 51.03125 39.269531 51.832031 37.136719 C 52.390625 35.628906 52.789062 33.988281 52.789062 32.359375 C 52.789062 28.144531 51.078125 24.320312 48.304688 21.554688 C 45.535156 18.78125 41.71875 17.070312 37.492188 17.070312 C 33.277344 17.070312 29.453125 18.78125 26.6875 21.554688 C 23.917969 24.328125 22.203125 28.144531 22.203125 32.359375 C 22.203125 33.996094 22.605469 35.628906 23.164062 37.144531 C 23.964844 39.285156 25.101562 41.144531 25.914062 42.328125 C 26.035156 42.503906 26.214844 42.765625 26.429688 43.0625 C 26.542969 43.234375 26.734375 43.492188 26.941406 43.792969 C 27.503906 44.585938 28.046875 45.359375 28.488281 46.035156 C 28.925781 46.710938 29.269531 47.332031 29.46875 47.863281 L 29.585938 48.164062 L 29.898438 48.230469 L 30.613281 48.386719 L 31.582031 48.601562 L 31.3125 47.648438 C 31.113281 46.949219 30.722656 46.179688 30.199219 45.34375 C 29.691406 44.523438 29.078125 43.664062 28.433594 42.742188 C 28.21875 42.433594 28.039062 42.1875 27.925781 42.027344 C 27.789062 41.828125 27.617188 41.589844 27.425781 41.304688 C 26.789062 40.375 25.9375 39 25.246094 37.410156 C 24.5625 35.84375 24.03125 34.085938 24.039062 32.359375 C 24.039062 28.640625 25.554688 25.269531 27.988281 22.835938 C 30.421875 20.402344 33.792969 18.890625 37.507812 18.890625 C 41.226562 18.890625 44.589844 20.402344 47.03125 22.835938 C 49.472656 25.277344 50.984375 28.648438 50.984375 32.359375 C 50.984375 33.773438 50.632812 35.207031 50.132812 36.535156 C 49.402344 38.480469 48.34375 40.199219 47.601562 41.296875 C 47.378906 41.621094 47.054688 42.074219 46.738281 42.527344 L 46.59375 42.742188 Z M 46.570312 42.742188 " fill-opacity="1" fill-rule="nonzero"/></g><g clip-path="url(#2b8d1008a1)"><path fill="#3f53d8" d="M 37.746094 15.226562 C 38.378906 15.226562 38.890625 14.710938 38.890625 14.082031 L 38.890625 9.511719 C 38.890625 8.882812 38.378906 8.371094 37.746094 8.371094 C 37.117188 8.371094 36.601562 8.882812 36.601562 9.511719 L 36.601562 14.082031 C 36.601562 14.710938 37.117188 15.226562 37.746094 15.226562 Z M 42.117188 16.109375 C 41.53125 15.871094 41.257812 15.195312 41.496094 14.621094 L 43.238281 10.398438 C 43.476562 9.8125 44.152344 9.535156 44.726562 9.773438 C 45.3125 10.011719 45.585938 10.6875 45.351562 11.265625 L 43.605469 15.488281 C 43.367188 16.070312 42.691406 16.347656 42.117188 16.109375 Z M 32.871094 16.308594 C 33.453125 16.070312 33.730469 15.394531 33.492188 14.820312 L 31.75 10.597656 C 31.511719 10.011719 30.835938 9.734375 30.261719 9.972656 C 29.675781 10.210938 29.398438 10.886719 29.636719 11.464844 L 31.382812 15.6875 C 31.621094 16.269531 32.296875 16.546875 32.871094 16.308594 Z M 32.871094 16.308594 " fill-opacity="1" fill-rule="evenodd"/></g><path fill="#3f53d8" d="M 36.878906 28.542969 C 36.902344 28.351562 37.078125 28.21875 37.269531 28.242188 C 37.464844 28.265625 37.59375 28.441406 37.570312 28.632812 C 37.523438 28.988281 37.625 29.324219 37.824219 29.59375 C 38.023438 29.855469 38.324219 30.046875 38.675781 30.09375 C 38.867188 30.117188 39 30.292969 38.976562 30.484375 C 38.953125 30.675781 38.777344 30.808594 38.585938 30.785156 C 38.039062 30.707031 37.578125 30.421875 37.269531 30.015625 C 37.269531 30.007812 37.261719 30.007812 37.261719 30 C 36.832031 30.132812 36.003906 30.253906 35.445312 29.511719 C 35.328125 29.355469 35.359375 29.132812 35.511719 29.019531 C 35.667969 28.902344 35.890625 28.933594 36.003906 29.085938 C 36.273438 29.441406 36.679688 29.425781 36.949219 29.363281 C 36.871094 29.101562 36.847656 28.828125 36.886719 28.542969 Z M 43.269531 29.324219 Z M 37.585938 26.414062 Z M 36.988281 26.054688 Z M 30.730469 34.425781 Z M 31.1875 31.414062 Z M 31.789062 31.054688 Z M 31.136719 34.992188 Z M 42.546875 34.234375 C 42.929688 33.847656 43.167969 33.320312 43.167969 32.726562 C 43.167969 32.144531 42.929688 31.613281 42.546875 31.222656 C 42.164062 30.839844 41.632812 30.601562 41.042969 30.601562 C 40.851562 30.601562 40.6875 30.445312 40.6875 30.246094 C 40.6875 30.054688 40.851562 29.894531 41.042969 29.894531 C 41.824219 29.894531 42.53125 30.207031 43.039062 30.722656 C 43.554688 31.238281 43.867188 31.945312 43.867188 32.71875 C 43.867188 32.933594 43.84375 33.140625 43.796875 33.339844 C 44.011719 33.402344 44.234375 33.441406 44.472656 33.441406 C 45.71875 33.441406 46.738281 32.480469 46.839844 31.261719 C 47.378906 30.9375 47.738281 30.347656 47.738281 29.671875 C 47.738281 28.871094 47.230469 28.1875 46.523438 27.9375 C 46.277344 28.394531 45.910156 28.765625 45.480469 29.027344 C 44.859375 29.394531 44.097656 29.523438 43.335938 29.332031 L 43.308594 29.324219 L 43.269531 29.300781 C 43.101562 29.21875 43.023438 29.003906 43.113281 28.835938 C 43.191406 28.6875 43.359375 28.613281 43.515625 28.648438 C 44.082031 28.796875 44.660156 28.695312 45.128906 28.417969 C 45.59375 28.144531 45.957031 27.691406 46.101562 27.121094 C 46.179688 26.820312 46.1875 26.515625 46.132812 26.222656 C 45.863281 25.5625 45.351562 24.964844 44.660156 24.566406 C 44.628906 24.558594 44.597656 24.550781 44.566406 24.542969 C 44.488281 24.519531 44.421875 24.480469 44.375 24.417969 C 44.289062 24.378906 44.199219 24.335938 44.105469 24.304688 C 43.121094 23.925781 42.09375 23.988281 41.28125 24.386719 C 40.855469 23.742188 40.128906 23.320312 39.296875 23.320312 C 38.792969 23.320312 38.324219 23.480469 37.9375 23.75 C 38.007812 23.925781 38.054688 24.113281 38.085938 24.296875 C 38.199219 25.011719 38.046875 25.761719 37.59375 26.398438 C 37.492188 26.539062 37.308594 26.59375 37.15625 26.507812 C 36.988281 26.421875 36.910156 26.207031 37.003906 26.039062 L 37.035156 25.992188 C 37.378906 25.515625 37.492188 24.941406 37.402344 24.410156 C 37.347656 24.105469 37.234375 23.804688 37.046875 23.542969 C 36.664062 23.28125 36.203125 23.128906 35.710938 23.128906 C 34.453125 23.128906 33.417969 24.113281 33.339844 25.355469 C 32.933594 25.023438 32.410156 24.824219 31.851562 24.824219 C 31.757812 24.824219 31.671875 24.832031 31.589844 24.839844 C 31.550781 24.871094 31.511719 24.894531 31.457031 24.902344 C 30.890625 25.046875 30.4375 25.410156 30.160156 25.878906 C 29.882812 26.347656 29.785156 26.921875 29.929688 27.492188 C 30.074219 28.058594 30.4375 28.511719 30.90625 28.789062 C 31.375 29.066406 31.949219 29.164062 32.519531 29.019531 L 32.5625 29.011719 L 32.609375 29.011719 C 32.800781 29.011719 32.964844 29.164062 32.964844 29.363281 C 32.964844 29.53125 32.839844 29.679688 32.6875 29.710938 C 31.933594 29.894531 31.183594 29.761719 30.558594 29.394531 C 29.9375 29.027344 29.453125 28.417969 29.261719 27.660156 L 29.253906 27.613281 C 29.222656 27.492188 29.207031 27.367188 29.191406 27.246094 C 28.109375 27.46875 27.296875 28.417969 27.296875 29.570312 C 27.296875 30.238281 27.574219 30.855469 28.027344 31.285156 C 27.6875 31.691406 27.488281 32.214844 27.488281 32.789062 C 27.488281 33.164062 27.574219 33.527344 27.734375 33.839844 C 27.765625 33.863281 27.789062 33.886719 27.8125 33.917969 C 28.148438 34.394531 28.65625 34.6875 29.191406 34.777344 C 29.730469 34.871094 30.296875 34.746094 30.773438 34.410156 C 31.25 34.070312 31.542969 33.566406 31.636719 33.035156 C 31.726562 32.496094 31.605469 31.929688 31.265625 31.453125 L 31.234375 31.40625 C 31.152344 31.230469 31.21875 31.023438 31.390625 30.9375 C 31.542969 30.863281 31.734375 30.90625 31.828125 31.046875 C 32.28125 31.683594 32.433594 32.4375 32.316406 33.148438 C 32.203125 33.863281 31.8125 34.53125 31.175781 34.984375 C 31.089844 35.046875 31.003906 35.101562 30.914062 35.152344 C 30.914062 35.175781 30.914062 35.199219 30.914062 35.222656 C 30.914062 36.535156 31.972656 37.597656 33.285156 37.597656 C 33.984375 37.597656 34.613281 37.296875 35.042969 36.8125 L 35.074219 36.773438 C 35.113281 36.789062 35.152344 36.8125 35.183594 36.828125 C 35.222656 38.109375 34.8125 39.699219 33.9375 41.605469 C 35.996094 40.40625 37.484375 38.449219 38.414062 35.746094 C 38.460938 35.746094 38.507812 35.753906 38.5625 35.753906 C 39.238281 35.753906 39.828125 35.382812 40.152344 34.847656 C 40.082031 34.378906 39.867188 33.964844 39.550781 33.640625 C 39.167969 33.257812 38.636719 33.019531 38.046875 33.019531 C 37.855469 33.019531 37.695312 32.859375 37.695312 32.664062 C 37.695312 32.472656 37.847656 32.3125 38.046875 32.3125 C 38.832031 32.3125 39.535156 32.628906 40.042969 33.140625 C 40.496094 33.59375 40.796875 34.195312 40.855469 34.871094 C 40.871094 34.878906 40.886719 34.886719 40.902344 34.894531 C 40.949219 34.871094 41.011719 34.855469 41.066406 34.855469 C 41.648438 34.855469 42.179688 34.617188 42.570312 34.234375 Z M 39.582031 26.285156 C 39.46875 26.132812 39.5 25.910156 39.652344 25.792969 C 39.804688 25.679688 40.027344 25.707031 40.144531 25.863281 C 40.410156 26.214844 40.820312 26.199219 41.085938 26.140625 C 41.011719 25.878906 40.988281 25.601562 41.027344 25.316406 C 41.050781 25.125 41.226562 24.996094 41.417969 25.019531 C 41.609375 25.039062 41.742188 25.21875 41.71875 25.410156 C 41.671875 25.761719 41.769531 26.101562 41.972656 26.367188 C 42.171875 26.628906 42.46875 26.816406 42.824219 26.867188 C 43.015625 26.890625 43.144531 27.066406 43.121094 27.261719 C 43.101562 27.453125 42.921875 27.582031 42.730469 27.558594 C 42.1875 27.484375 41.726562 27.199219 41.417969 26.792969 C 41.417969 26.785156 41.410156 26.785156 41.410156 26.777344 C 40.980469 26.90625 40.152344 27.03125 39.589844 26.285156 Z M 33.746094 32.75 C 34.292969 32.828125 34.753906 33.113281 35.058594 33.519531 C 35.058594 33.527344 35.066406 33.527344 35.066406 33.535156 C 35.496094 33.402344 36.328125 33.28125 36.886719 34.023438 C 37.003906 34.179688 36.972656 34.402344 36.816406 34.515625 C 36.664062 34.632812 36.441406 34.601562 36.328125 34.449219 C 36.058594 34.09375 35.652344 34.109375 35.382812 34.171875 C 35.460938 34.433594 35.480469 34.707031 35.445312 34.992188 C 35.421875 35.183594 35.242188 35.316406 35.050781 35.292969 C 34.859375 35.269531 34.730469 35.09375 34.753906 34.902344 C 34.796875 34.546875 34.699219 34.210938 34.5 33.941406 C 34.300781 33.679688 34 33.496094 33.648438 33.441406 C 33.453125 33.417969 33.324219 33.242188 33.347656 33.050781 C 33.371094 32.859375 33.546875 32.726562 33.738281 32.75 Z M 33.746094 32.75 " fill-opacity="1" fill-rule="evenodd"/></svg>